<?xml version="1.0" standalone="no"?>
<!DOCTYPE svg PUBLIC "-//W3C//DTD SVG 20010904//EN"
 "http://www.w3.org/TR/2001/REC-SVG-20010904/DTD/svg10.dtd">
<svg version="1.0" xmlns="http://www.w3.org/2000/svg"
 width="700.000000pt" height="700.000000pt" viewBox="0 0 700.000000 700.000000"
 preserveAspectRatio="xMidYMid meet">
<metadata>
Created by potrace 1.14, written by Peter Selinger 2001-2017
</metadata>
<g transform="translate(0.000000,700.000000) scale(0.100000,-0.100000)"
fill="#000000" stroke="none">
<path d="M1172 6989 c-299 -39 -579 -183 -797 -410 -180 -187 -292 -401 -351
-670 -18 -80 -19 -181 -19 -2409 0 -2228 1 -2329 19 -2409 60 -274 171 -484
359 -678 198 -203 435 -333 715 -390 82 -17 224 -18 2402 -18 2175 0 2320 1
2402 18 269 55 489 170 685 360 203 198 333 435 390 715 17 82 18 224 18 2402
0 2178 -1 2320 -18 2402 -54 268 -171 490 -360 685 -192 198 -399 314 -687
386 l-85 21 -2305 2 c-1268 1 -2333 -2 -2368 -7z m2966 -1241 c37 -128 1310
-4642 1317 -4670 l7 -28 -474 0 -474 0 -157 568 c-87 312 -162 584 -168 605
l-10 37 -708 0 -709 0 -26 -97 c-15 -54 -88 -325 -164 -603 l-137 -505 -447
-3 c-392 -2 -448 0 -448 13 0 10 1286 4604 1326 4738 5 16 44 17 628 17 l623
0 21 -72z"/>
<path d="M3186 3978 c-143 -530 -261 -969 -264 -975 -3 -10 110 -13 547 -13
518 0 551 1 551 18 0 9 -117 447 -259 972 l-258 955 -29 3 -29 3 -259 -963z"/>
</g>
</svg>
